<svg id="Layer_1" data-name="Layer 1" xmlns="http://www.w3.org/2000/svg" width="949.76" height="1023.36" viewBox="0 0 949.76 1023.36">
  <defs>
    <style>
      .cls-1 {
        fill: #a4dad2;
      }

      .cls-2 {
        fill: #f68c3d;
      }

      .cls-3 {
        fill: #c5c6c7;
      }

      .cls-4 {
        fill: #45a29e;
      }

      .cls-5 {
        fill: none;
        stroke: #ebc900;
        stroke-miterlimit: 10;
        stroke-width: 12px;
      }
    </style>
  </defs>
  <title>logo</title>
  <path class="cls-1" d="M1082.36,689a5,5,0,0,1,.14-6.67c3-3.13,5.44-6.7,8.42-9.83h0a85.23,85.23,0,0,0,2.75-20.36,5.83,5.83,0,0,1,.06-.74l.35-11.07L909.59,385.43,799.08,481.67l224.23,309.7a99.93,99.93,0,0,0,4.6-11.48,4.74,4.74,0,0,1,3.75-3.39c9.6-16.72,21.19-32.37,31.69-48.48a57.57,57.57,0,0,1,6.26-10,5.57,5.57,0,0,1-2.65-4.7C1066.55,701.9,1073.9,695,1082.36,689Z" transform="translate(-168.13 0.16)"/>
  <g>
    <path class="cls-2" d="M254.43,152.5l12.48-12.11,64.23,66.21-12.47,12.1Zm58.13,48.79,38.79-37.63,11.67,12-38.8,37.64Z" transform="translate(-168.13 0.16)"/>
    <path class="cls-2" d="M369,139.94c1.82,2.6,4,4.11,6.45,4.51s5.05-.31,7.72-2.18,4.21-4,4.62-6.51-.34-5.09-2.25-7.83l9,11.3a20.53,20.53,0,0,1,.18,10.94,15.48,15.48,0,0,1-6.45,9q-8.69,6.08-17.33,3.79t-15.79-12.54l-23.29-33.34,14.25-9.95Zm-6.17-44.52L377,85.51l37.71,54-14.2,9.92Z" transform="translate(-168.13 0.16)"/>
    <path class="cls-2" d="M443.81,125.39l-7.59-.24a23.9,23.9,0,0,1-13.76-4.85A36.05,36.05,0,0,1,412,107.06l-3.12-6.32q-4.25-8.58-4.11-16.19a23.73,23.73,0,0,1,4.56-13.75,33.81,33.81,0,0,1,12.85-10.31,40.34,40.34,0,0,1,9.67-3.4,30.91,30.91,0,0,1,9.3-.6,22.9,22.9,0,0,1,8.21,2.31l-5.23,14.76a17.23,17.23,0,0,0-6.59-.6,19,19,0,0,0-6.64,1.9q-5.91,2.92-7.59,7.68T424.49,93l3.12,6.32q2.92,5.91,7.76,7.52t10.74-1.31a17.88,17.88,0,0,0,5.55-4.23A16,16,0,0,0,455,95.46l15.19,5.37a24.14,24.14,0,0,1-3.26,7.88,31.22,31.22,0,0,1-6.12,7,41.48,41.48,0,0,1-8.57,5.57Z" transform="translate(-168.13 0.16)"/>
    <path class="cls-2" d="M506.1,2.54l10.71-2.7,56.72,80.85-18.15,4.57L518.59,29.55l-6,66.48-18.15,4.57Zm-3,63.35L550.2,54l4.09,16.25L507.23,82.13Z" transform="translate(-168.13 0.16)"/>
    <path class="cls-2" d="M575.12,15.1l17.33-1.34,5.07,65.66-17.33,1.34Zm40,22.94q-.37-4.8-3.33-7.25t-8-2.05c-3.21.25-5.62,1.33-7.23,3.26s-2.29,4.51-2,7.76L592,25.32a24.54,24.54,0,0,1,6.4-9.85,17,17,0,0,1,10.16-3.91q10.38-.8,16.61,5.75t7.22,19.33l3.08,39.85-17.33,1.34Z" transform="translate(-168.13 0.16)"/>
    <path class="cls-2" d="M662.56,104.55l-5.95-3.24a22.37,22.37,0,0,1-9-8.51L660.13,83a15.06,15.06,0,0,0,5,4.12,16.56,16.56,0,0,0,6.34,1.8,13.13,13.13,0,0,0,9.12-2.27,10.28,10.28,0,0,0,4.1-8l5.14-64.95,17.33,1.37-5,63.69a32.58,32.58,0,0,1-4.67,15.22,22.94,22.94,0,0,1-10.83,9,35.11,35.11,0,0,1-16.24,2.09Zm-4.88-29.66a21,21,0,0,1-6.79-10.31A40.83,40.83,0,0,1,649.51,49l.83-10.5a41.72,41.72,0,0,1,3.82-15.29,19.76,19.76,0,0,1,20.52-11.61A16,16,0,0,1,684,15.53,22.06,22.06,0,0,1,690.3,25l-2.47,14.45a13.17,13.17,0,0,0-.69-5.79,8.08,8.08,0,0,0-3-3.83,10.55,10.55,0,0,0-5.18-1.65,9.19,9.19,0,0,0-7.82,2.72q-3,3.11-3.43,9.12l-.83,10.43q-.47,5.88,2,9.32a9.31,9.31,0,0,0,7.3,3.82,10.73,10.73,0,0,0,5.38-.78,7.83,7.83,0,0,0,3.59-3.22,12.18,12.18,0,0,0,1.58-5.41l-.3,15.06A17.38,17.38,0,0,1,679.5,77a16.79,16.79,0,0,1-10.16,2.15A20.88,20.88,0,0,1,657.68,74.89Z" transform="translate(-168.13 0.16)"/>
    <path class="cls-2" d="M733.58,88.26l-5.77-4.92a23.72,23.72,0,0,1-7.71-12.2,33.34,33.34,0,0,1,.23-16.34L722,47.57a37.55,37.55,0,0,1,7.16-15.45,23.58,23.58,0,0,1,12.06-8,31.85,31.85,0,0,1,16.11.1,25.19,25.19,0,0,1,13.39,7.61A26.69,26.69,0,0,1,777,46.22q1.21,8.74-1.46,20l-1,4.2L730.69,60.06l2.71-11.42,28.39,6.73.17-1.52q.63-5.73-1.45-9.41a10.07,10.07,0,0,0-6.79-4.81q-6.11-1.44-10.34,1.4t-5.81,9.51l-1.93,8.15q-1.54,6.54,1.27,11t9.43,6a20.06,20.06,0,0,0,7,.39,21,21,0,0,0,6.86-2l8.72,12.44A38,38,0,0,1,756,90.94a34.67,34.67,0,0,1-13.19-.48Z" transform="translate(-168.13 0.16)"/>
    <path class="cls-2" d="M837.91,51.8,854,58.19l-47.3,52.08-11.44-4.55,1.31-70.33,16.1,6.39L810,85.18Z" transform="translate(-168.13 0.16)"/>
    <path class="cls-2" d="M839.67,120.31q-2-7,3.14-15.88,4.89-8.46,12.42-9.75t17.68,4.59l14.28,8.26-5.87,11.93-15-8.68c-2.27-1.31-4.24-1.85-5.89-1.61a5.67,5.67,0,0,0-4.07,3.11,5.27,5.27,0,0,0-.26,5.38c.91,1.73,2.81,3.42,5.71,5.1q6,3.49,9.77,3.82A5.19,5.19,0,0,0,877,124L873.36,133a9,9,0,0,1-5.85,3.59,19.07,19.07,0,0,1-8.12-.41,33.73,33.73,0,0,1-8.55-3.52Q841.68,127.3,839.67,120.31Zm48.42-15.48a8.51,8.51,0,0,0,.89-7.62q-1.4-3.66-6.22-6.46a22.92,22.92,0,0,0-6.92-2.61,21.62,21.62,0,0,0-7.23-.3l-4-14.57a25.91,25.91,0,0,1,12.51-.86,39.27,39.27,0,0,1,13.67,5,34.09,34.09,0,0,1,11.29,9.87,20.69,20.69,0,0,1,3.85,11.9,25.73,25.73,0,0,1-3.85,13.06l-21.19,36.63L867.19,141Z" transform="translate(-168.13 0.16)"/>
    <path class="cls-2" d="M932.72,105.19l14.73,11.44-40.38,52-14.73-11.44ZM949.45,139a13.2,13.2,0,0,0-3-3.11,10.17,10.17,0,0,0-8.53-2.32q-4.35.91-8.05,5.67l9.45-14.34A23.49,23.49,0,0,1,950.57,122a15.54,15.54,0,0,1,9.54,3.28,20.25,20.25,0,0,1,5.1,5.6,16.33,16.33,0,0,1,2.23,6.59l-16.7,5A8,8,0,0,0,949.45,139Z" transform="translate(-168.13 0.16)"/>
    <path class="cls-2" d="M945,203l-2.27-7.24a23.62,23.62,0,0,1,0-14.43,33.36,33.36,0,0,1,8.88-13.72l5.29-5.21q7-6.84,14.28-9.28a23.65,23.65,0,0,1,14.45-.33,32,32,0,0,1,13.59,8.66,25.13,25.13,0,0,1,7.29,13.56,26.68,26.68,0,0,1-2.37,15.46q-3.61,8-11.89,16.19l-3.07,3-31.59-32.11,8.36-8.23,20.47,20.81,1-1.21q3.58-4.5,3.78-8.74a10,10,0,0,0-3.2-7.67q-4.39-4.49-9.49-4.32t-10,5l-6,5.87q-4.8,4.71-4.77,10t4.79,10.11a20.16,20.16,0,0,0,5.73,4.06,21,21,0,0,0,6.87,2l.77,15.17a37.89,37.89,0,0,1-13.28-3.13,34.54,34.54,0,0,1-10.9-7.43Z" transform="translate(-168.13 0.16)"/>
  </g>
  <g>
    <path class="cls-2" d="M352.19,813.94,365.58,825l-58.84,71.05L293.35,885Zm-41.41,63.73,17.05,14.13q6.6,5.46,12.84,5.28c4.17-.12,7.85-2.12,11.07-6l17.32-20.91q4.8-5.82,3.83-12t-7.59-11.63l-17.05-14.12,10.68-12.9,16.76,13.88q8.9,7.37,12.71,15.54a27.47,27.47,0,0,1,2.35,16.61q-1.47,8.43-8.14,16.49l-16.67,20.13A35.47,35.47,0,0,1,351.7,913,27.87,27.87,0,0,1,334.88,914q-8.94-2-18.07-9.61L300.1,890.57Z" transform="translate(-168.13 0.16)"/>
    <path class="cls-2" d="M383.15,952.52,379,946.16a23.68,23.68,0,0,1-3.93-13.88,33.24,33.24,0,0,1,4.86-15.61l3.69-6.44q4.86-8.47,11.24-12.79a23.61,23.61,0,0,1,13.82-4.21,31.8,31.8,0,0,1,15.42,4.67A25.12,25.12,0,0,1,434.79,909a26.58,26.58,0,0,1,1.89,15.53q-1.31,8.72-7.08,18.79l-2.14,3.74-39.08-22.4,5.83-10.18L419.53,929l.59-1.41q2.24-5.31,1.28-9.44a10,10,0,0,0-5.14-6.53Q410.82,908.48,406,910t-8.27,7.47l-4.17,7.27q-3.35,5.82-1.9,10.9t7.34,8.44a20.16,20.16,0,0,0,6.61,2.37,21.19,21.19,0,0,0,7.15,0l4.83,14.4a37.9,37.9,0,0,1-13.63.56,34.51,34.51,0,0,1-12.5-4.21Z" transform="translate(-168.13 0.16)"/>
    <path class="cls-2" d="M493.86,931.19,510,937.52l-47.09,52.26-11.46-4.5,1-70.34,16.12,6.33-2.45,43.41Z" transform="translate(-168.13 0.16)"/>
    <path class="cls-2" d="M552.71,977.51q-4.22,3.32-5.34,10.39a9.52,9.52,0,0,0,2.61,8.67q3.43,3.46,10.51,4.59A18,18,0,0,0,572.85,999a25.29,25.29,0,0,0,9.28-10.35,54.81,54.81,0,0,0,5.36-17.17L604,974.07q-2.37,15-8.86,25.1a36.92,36.92,0,0,1-16.61,14.48q-10.14,4.38-23.3,2.29a35.15,35.15,0,0,1-14.74-5.48,21.91,21.91,0,0,1-8.23-10.46,28.57,28.57,0,0,1-1.09-14.66q1.77-11.15,9.32-16.83T560,963.63l3.56,11.62Q556.92,974.19,552.71,977.51Zm2.92.4A61.38,61.38,0,0,1,549.56,967a42.79,42.79,0,0,1-3-10.85,37.3,37.3,0,0,1,.13-11q1.89-12,9.64-17.46t20-3.54q12.23,1.94,17.9,9.29t3.85,18.88l-.4,2.51-17.17-2.72.4-2.51q.87-5.51-.84-8.93a7.25,7.25,0,0,0-5.71-4,8.73,8.73,0,0,0-7.73,2.15q-3.09,2.88-4,8.9a20.7,20.7,0,0,0,.46,7.68,47.06,47.06,0,0,0,3.35,9.46,83.54,83.54,0,0,0,5.94,10.54l31,47.24L584,1019.52Z" transform="translate(-168.13 0.16)"/>
    <path class="cls-2" d="M642.54,931.27l17.32-1.44,7.62,91.94-17.32,1.43Zm15,74.52,22.07-1.83q8.53-.71,12.87-5.21t3.71-12l-2.24-27.06q-.61-7.51-5.64-11.25c-3.35-2.48-7.86-3.48-13.56-3l-22.06,1.83-1.39-16.69,21.69-1.8q11.5-1,19.95,2.23a27.45,27.45,0,0,1,13.3,10.23q4.84,7,5.71,17.48l2.16,26a35.42,35.42,0,0,1-2.64,17.66,27.9,27.9,0,0,1-11.28,12.52q-7.81,4.79-19.64,5.77l-21.63,1.79Z" transform="translate(-168.13 0.16)"/>
    <path class="cls-2" d="M761.5,1008.73l-7.41-1.66a23.61,23.61,0,0,1-12.5-7.19,33.24,33.24,0,0,1-7.42-14.56l-1.86-7.19a37.49,37.49,0,0,1-.88-17,23.62,23.62,0,0,1,7-12.67,31.93,31.93,0,0,1,14.3-7.43,25.14,25.14,0,0,1,15.39.49,26.53,26.53,0,0,1,12.19,9.79q5.16,7.16,8.06,18.4l1.08,4.18-43.62,11.25-2.93-11.36,28.26-7.29-.57-1.43q-2.1-5.35-5.67-7.64a10,10,0,0,0-8.24-1.09q-6.09,1.57-8.5,6.06t-.7,11.12l2.09,8.11q1.68,6.51,6.26,9.13t11.15.93a20.36,20.36,0,0,0,6.38-2.93,20.9,20.9,0,0,0,5.14-5L792,990.72a38.15,38.15,0,0,1-9.37,9.92,34.65,34.65,0,0,1-11.89,5.72Z" transform="translate(-168.13 0.16)"/>
    <path class="cls-2" d="M836.53,984.17,831,985.41a52.11,52.11,0,0,1-10.83,1.3,38.32,38.32,0,0,1-9.86-1.09l4.58-16.53a41.55,41.55,0,0,0,11,.39,32.73,32.73,0,0,0,9.75-2.38,26,26,0,0,0,8.15-5c1.7-1.72,2.24-3.32,1.6-4.8a4,4,0,0,0-2.66-2.51,8.89,8.89,0,0,0-4.08,0,61,61,0,0,0-6.23,1.74l-2.23.68-2.28.7-.54.12a4.77,4.77,0,0,0-.5.19,71.19,71.19,0,0,1-11.77,2.49,15.18,15.18,0,0,1-9-2q-4.39-2.43-7.36-9.37a18.66,18.66,0,0,1,4.1-21.82,39,39,0,0,1,12.45-8,49.85,49.85,0,0,1,9.58-3,52.57,52.57,0,0,1,9.93-1.08,46.68,46.68,0,0,1,9.55.87L839.79,932a42.45,42.45,0,0,0-9.76.11,33.11,33.11,0,0,0-8.8,2.33,22.12,22.12,0,0,0-7.05,4.33q-2.2,2.27-1.36,4.24a2.86,2.86,0,0,0,2.44,1.75,11.38,11.38,0,0,0,4.09-.3q2.28-.53,6.57-1.82l1.1-.33,1.1-.33a2.84,2.84,0,0,0,.55-.17,2.47,2.47,0,0,1,.55-.17,78.73,78.73,0,0,1,12.38-2.82,16.32,16.32,0,0,1,9.76,1.89q4.75,2.5,8,10A19.43,19.43,0,0,1,855,973.46a40.84,40.84,0,0,1-13,8.39Z" transform="translate(-168.13 0.16)"/>
    <path class="cls-2" d="M838.77,880l15.11-8.6,8.59,15.11-15.1,8.59ZM851.82,903l15.11-8.59L899.5,951.6l-15.11,8.6Z" transform="translate(-168.13 0.16)"/>
    <path class="cls-2" d="M924.34,933.25a20.84,20.84,0,0,1-11.87-3.38A40.73,40.73,0,0,1,901.28,919l-6.23-8.5A41.76,41.76,0,0,1,888,896.43a19.76,19.76,0,0,1,8-22.2,16,16,0,0,1,9.61-3.14,22.11,22.11,0,0,1,10.92,3L924,886.69a13,13,0,0,0-4.3-3.93,8,8,0,0,0-4.8-.92,10.57,10.57,0,0,0-5,2.13,9.2,9.2,0,0,0-4.14,7.17q-.21,4.27,3.35,9.14l6.19,8.44q3.48,4.77,7.57,5.78a9.33,9.33,0,0,0,8-1.87,10.87,10.87,0,0,0,3.56-4.1,8,8,0,0,0,.63-4.79,12.31,12.31,0,0,0-2.34-5.12l9.6,11.6a17.36,17.36,0,0,1-.09,10.4,16.83,16.83,0,0,1-6.29,8.27A20.9,20.9,0,0,1,924.34,933.25Zm23.06,19.28L940.77,954a22.29,22.29,0,0,1-12.34-.59l3.08-15.55a15,15,0,0,0,6.49-.15,16.66,16.66,0,0,0,6-2.78,13.22,13.22,0,0,0,5.43-7.67,10.32,10.32,0,0,0-2.09-8.7L908.82,866l14-10.27,37.76,51.53a32.51,32.51,0,0,1,6.4,14.59,22.89,22.89,0,0,1-2.32,13.89,35.1,35.1,0,0,1-10.94,12.18Z" transform="translate(-168.13 0.16)"/>
    <path class="cls-2" d="M934.81,845.43,947,833.07l46.83,46.29-12.22,12.37ZM980,836.6a9.91,9.91,0,0,0-7.26-3.3q-3.84.09-7.41,3.7c-2.26,2.28-3.36,4.68-3.32,7.2s1.23,4.91,3.54,7.2l-11.31-9.31a24.75,24.75,0,0,1-1.62-11.64,17,17,0,0,1,5.13-9.6q7.32-7.4,16.31-6.53t18.12,9.87l28.42,28.1-12.22,12.37Z" transform="translate(-168.13 0.16)"/>
  </g>
  <rect class="cls-3" x="504.8" y="342.32" width="94.73" height="160.25" transform="translate(-260.12 161.04) rotate(-15.32)"/>
  <polygon class="cls-1" points="457.27 337.12 720.93 372.68 640.69 487.15 458.01 460.43 457.27 337.12"/>
  <path class="cls-4" d="M915.3,498.89A73.81,73.81,0,1,1,923,394.78,73.83,73.83,0,0,1,915.3,498.89Z" transform="translate(-168.13 0.16)"/>
  <path class="cls-3" d="M891.72,471.55a37.71,37.71,0,1,1,3.93-53.19A37.7,37.7,0,0,1,891.72,471.55Z" transform="translate(-168.13 0.16)"/>
  <path class="cls-4" d="M706.81,430a64,64,0,1,1-25.09-86.93A64,64,0,0,1,706.81,430Z" transform="translate(-168.13 0.16)"/>
  <path class="cls-3" d="M679.42,414.87a32.68,32.68,0,1,1-12.82-44.41A32.69,32.69,0,0,1,679.42,414.87Z" transform="translate(-168.13 0.16)"/>
  <polygon class="cls-4" points="164.91 479.76 138.22 453.16 236.57 354.52 365.7 367.24 362.01 404.74 250.65 393.77 164.91 479.76"/>
  <path class="cls-3" d="M436.49,389.51a27.07,27.07,0,1,1-10.62-36.78A27.07,27.07,0,0,1,436.49,389.51Z" transform="translate(-168.13 0.16)"/>
  <polygon class="cls-4" points="172.19 494.72 163.79 531.46 299.58 562.5 402.06 482.92 378.95 453.15 290.57 521.78 172.19 494.72"/>
  <path class="cls-3" d="M475.87,515.66a27.07,27.07,0,1,0,10.62,36.78A27.06,27.06,0,0,0,475.87,515.66Z" transform="translate(-168.13 0.16)"/>
  <rect class="cls-4" x="573.05" y="309.97" width="67.31" height="193.01" transform="translate(-253.96 174.89) rotate(-15.32)"/>
  <path class="cls-5" d="M285.67,820.39A468.94,468.94,0,0,1,275.6,225.47" transform="translate(-168.13 0.16)"/>
  <path class="cls-5" d="M1009.32,224.08a469,469,0,0,1,12.14,569.6" transform="translate(-168.13 0.16)"/>
</svg>
